<?xml version="1.0" encoding="UTF-8"?>
<svg id="Layer_1" data-name="Layer 1" xmlns="http://www.w3.org/2000/svg" xmlns:xlink="http://www.w3.org/1999/xlink" viewBox="0 0 4000 4000">
  <defs>
    <style>
      .cls-1 {
        fill: url(#linear-gradient);
      }

      .cls-2 {
        fill: url(#linear-gradient-8);
      }

      .cls-3 {
        fill: url(#linear-gradient-9);
      }

      .cls-4 {
        fill: url(#linear-gradient-3);
      }

      .cls-5 {
        fill: url(#linear-gradient-4);
      }

      .cls-6 {
        fill: url(#linear-gradient-2);
      }

      .cls-7 {
        fill: url(#linear-gradient-6);
      }

      .cls-8 {
        fill: url(#linear-gradient-7);
      }

      .cls-9 {
        fill: url(#linear-gradient-5);
      }

      .cls-10 {
        fill: url(#linear-gradient-14);
      }

      .cls-11 {
        fill: url(#linear-gradient-15);
      }

      .cls-12 {
        fill: url(#linear-gradient-16);
      }

      .cls-13 {
        fill: url(#linear-gradient-17);
      }

      .cls-14 {
        fill: url(#linear-gradient-13);
      }

      .cls-15 {
        fill: url(#linear-gradient-12);
      }

      .cls-16 {
        fill: url(#linear-gradient-10);
      }

      .cls-17 {
        fill: url(#linear-gradient-11);
      }
    </style>
    <linearGradient id="linear-gradient" x1="790.13" y1="1906.4" x2="2364.26" y2="3604.55" gradientUnits="userSpaceOnUse">
      <stop offset="0" stop-color="#65bc80"/>
      <stop offset="1" stop-color="#52979f"/>
    </linearGradient>
    <linearGradient id="linear-gradient-2" x1="819.9" y1="1687.65" x2="2485.53" y2="3484.51" xlink:href="#linear-gradient"/>
    <linearGradient id="linear-gradient-3" x1="1096.2" y1="1315.88" x2="2692.77" y2="3038.24" xlink:href="#linear-gradient"/>
    <linearGradient id="linear-gradient-4" x1="1355.92" y1="1030.46" x2="2961.59" y2="2762.64" xlink:href="#linear-gradient"/>
    <linearGradient id="linear-gradient-5" x1="2062.44" y1="227.47" x2="3670.5" y2="1962.22" xlink:href="#linear-gradient"/>
    <linearGradient id="linear-gradient-6" x1="581.74" y1="1914.59" x2="2057.97" y2="3507.12" xlink:href="#linear-gradient"/>
    <linearGradient id="linear-gradient-7" x1="739.97" y1="1767.54" x2="2216.82" y2="3360.74" xlink:href="#linear-gradient"/>
    <linearGradient id="linear-gradient-8" x1="892.86" y1="1626.51" x2="2368.98" y2="3218.92" xlink:href="#linear-gradient"/>
    <linearGradient id="linear-gradient-9" x1="1050.7" y1="1479.5" x2="2527.55" y2="3072.71" xlink:href="#linear-gradient"/>
    <linearGradient id="linear-gradient-10" x1="1247.2" y1="1298.13" x2="2723.46" y2="2890.7" xlink:href="#linear-gradient"/>
    <linearGradient id="linear-gradient-11" x1="1381.81" y1="1173.1" x2="2858.34" y2="2765.96" xlink:href="#linear-gradient"/>
    <linearGradient id="linear-gradient-12" x1="1555.51" y1="1009.6" x2="3033.43" y2="2603.96" xlink:href="#linear-gradient"/>
    <linearGradient id="linear-gradient-13" x1="1684.84" y1="891.69" x2="3161.65" y2="2484.85" xlink:href="#linear-gradient"/>
    <linearGradient id="linear-gradient-14" x1="1848.52" y1="739.98" x2="3325.36" y2="2333.19" xlink:href="#linear-gradient"/>
    <linearGradient id="linear-gradient-15" x1="1985.06" y1="613.74" x2="3461.78" y2="2206.82" xlink:href="#linear-gradient"/>
    <linearGradient id="linear-gradient-16" x1="362.31" y1="2301.84" x2="1555.73" y2="3589.29" xlink:href="#linear-gradient"/>
    <linearGradient id="linear-gradient-17" x1="2418.02" y1="1842.28" x2="3162.6" y2="1768.18" xlink:href="#linear-gradient"/>
  </defs>
  <path class="cls-1" d="m731.46,1402.71l-197.75,486.3-197.75-486.3h-128.48l326.23,806.07,326.23-806.07h-128.48Z"/>
  <path class="cls-6" d="m859.95,1834.46v128.84h311.52v-128.84h-311.52Z"/>
  <path class="cls-4" d="m1171.46,1402.27v119.15h209.59v681.18h122.74v-681.18h209.59v-119.15h-541.92Z"/>
  <path class="cls-5" d="m1947.38,2079.85v-201.7h332.69v-115.92h-332.69v-240.82h369.66v-119.15h-492.4v798.89h500.29v-121.31h-377.55Z"/>
  <path class="cls-9" d="m3687.28,1402.27v428.52h-329.82l-.36-428.52h-123.82v800.33h124.18v-263.07h329.82v263.07h124.18v-800.33h-124.18Z"/>
  <g>
    <path class="cls-7" d="m1179.05,2529.43c15.28-5.41,26.74-14.01,35.02-25.46,8.28-11.78,12.41-25.78,12.41-42.34,0-23.55-7.96-41.7-24.19-55.07-15.92-13.37-37.88-20.05-65.57-20.05h-83.72v214.86h30.56v-65.25h53.16c3.18,0,7.64-.32,13.37-.64l46.47,65.89h33.42l-50.93-71.94Zm-43.29-19.42h-52.2v-96.77h52.2c19.42,0,34.38,4.14,44.56,12.41,10.19,8.28,15.28,20.37,15.28,35.97s-5.09,27.37-15.28,35.97c-10.19,8.28-25.15,12.41-44.56,12.41Z"/>
    <path class="cls-8" d="m1368.12,2574.94v-69.39h107.91v-26.1h-107.91v-66.21h120.96v-26.74h-151.51v214.86h155.97v-26.42h-125.41Z"/>
    <path class="cls-2" d="m1758.69,2386.51v160.43l-128.91-160.43h-25.15v214.86h30.56v-160.11l128.91,160.11h25.15v-214.86h-30.56Z"/>
    <path class="cls-3" d="m1945.85,2574.94v-69.39h107.91v-26.1h-107.91v-66.21h120.96v-26.74h-151.52v214.86h155.97v-26.42h-125.41Z"/>
    <path class="cls-16" d="m2453.56,2386.51l-59.21,175.71-59.2-175.71h-28.33l-60.48,174.75-57.93-174.75h-31.51l71.62,214.86h33.1l58.57-171.57,58.57,171.57h32.15l71.94-214.86h-29.28Z"/>
    <path class="cls-17" d="m2670.01,2386.51h-30.24l-97.4,214.86h31.51l23.87-53.48h113.96l23.87,53.48h32.15l-97.72-214.86Zm-61.75,136.87l46.47-105.36,46.47,105.36h-92.95Z"/>
    <path class="cls-15" d="m3035.11,2509.05c-7.32-9.23-17.19-15.6-29.6-19.1,8.91-4.14,15.92-10.5,21.01-18.46,5.41-8.28,7.96-18.14,7.96-29.28,0-17.51-6.69-30.88-20.05-40.74-13.37-9.87-32.47-14.96-56.98-14.96h-96.45v214.86h102.49c26.74,0,47.11-4.78,61.43-14.96,14.01-9.87,21.01-24.19,21.01-42.97,0-14.01-3.82-25.46-10.82-34.38Zm-143.56-97.4h63.02c15.92,0,28.01,2.87,36.29,8.59,8.59,5.73,12.73,14.32,12.73,25.78s-4.14,19.73-12.73,25.46c-8.28,5.73-20.37,8.91-36.29,8.91h-63.02v-68.75Zm110.13,156.29c-8.91,5.73-21.96,8.59-39.47,8.59h-70.66v-71.3h70.66c35.01,0,52.52,11.78,52.52,35.65,0,12.41-4.46,21.33-13.05,27.06Z"/>
    <path class="cls-14" d="m3185.35,2574.94v-188.44h-30.56v214.86h147.06v-26.42h-116.5Z"/>
    <path class="cls-10" d="m3429.17,2574.94v-69.39h107.91v-26.1h-107.91v-66.21h120.96v-26.74h-151.51v214.86h155.97v-26.42h-125.41Z"/>
    <path class="cls-11" d="m3800.64,2510.65c-7-7.96-15.28-14.01-25.15-17.83-9.87-3.82-22.92-7.64-39.15-11.78-12.41-2.86-22.28-5.41-29.6-7.96-7-2.55-13.37-6.05-18.14-10.82-4.78-4.46-7.32-10.5-7.32-17.83,0-10.19,4.45-18.46,13.05-24.51,8.59-6.37,21.64-9.55,39.15-9.55,9.87,0,19.73,1.27,29.92,4.45,10.19,2.87,20.05,7.32,28.97,13.05l10.19-24.83c-8.91-6.05-19.42-10.82-31.83-14.01-12.1-3.18-24.51-4.77-37.24-4.77-18.14,0-33.42,2.55-45.84,8.28-12.1,5.41-21.33,12.73-27.37,21.96-6.05,9.23-9.23,19.73-9.23,31.19,0,13.69,3.5,24.51,10.82,32.47,7,8.27,15.28,14.01,25.47,18.14,9.87,3.82,22.92,7.64,39.15,11.46,12.73,3.18,22.6,6.05,29.92,8.28,7,2.55,12.73,6.05,17.83,10.82,4.77,4.46,7,10.5,7,17.83,0,10.19-4.45,18.14-13.05,24.19-8.91,6.05-22.28,8.91-40.11,8.91-13.37,0-26.42-2.23-39.47-6.69-12.73-4.78-23.24-10.82-31.19-18.14l-11.46,23.87c8.59,7.96,20.37,14.64,35.33,19.73,15.28,4.78,30.88,7.32,46.79,7.32,18.46,0,33.74-2.55,46.16-7.96,12.41-5.41,21.96-13.05,28.01-22.28,6.05-9.23,9.23-19.42,9.23-30.88,0-13.37-3.5-24.19-10.82-32.15Z"/>
  </g>
  <rect class="cls-12" x="188.54" y="2510.04" width="757.7" height="26.09"/>
  <path class="cls-13" d="m3142.24,2044.4c-37.09,50.31-83.45,90.33-139.36,119.89-55.91,29.56-117.51,44.43-184.8,44.43-55.54,0-107.68-10.74-156.52-32.22-17.72-7.8-34.61-16.62-50.68-26.44-28.28-17.08-53.89-37.36-77.02-60.68-36.26-36.63-64.9-79.59-86.02-128.8-13.31-31.12-22.49-63.62-27.36-97.59-2.85-19.74-4.32-39.84-4.32-60.59,0-56.27,10.56-108.97,31.67-158.18,21.11-49.21,49.76-92.17,86.02-128.8,36.26-36.63,78.86-65.64,127.7-87.12,48.84-21.48,100.98-32.22,156.52-32.22,67.29,0,128.89,14.78,184.8,44.43,44.07,23.32,82.25,53.15,114.48,89.42l3.3,3.58c7.34,8.45,14.41,17.26,21.21,26.44-57.19-1.47-99.33,7.8-134.77,26.26-70.32,36.54-114.94,108.88-200.59,204.35-84.55,94.19-156.71,97.04-196.37,87.86-4.31-47.19,2.94-117.23,51.04-206.19,0,0-7.8,62.89,42.41,113.93,0,0,75.65-260.99,359.13-252.64,0,0-228.77-72.89-349.58,123.75l-21.67-92.63s-161.11,149.09-115.95,355.55c15.46,70.67,70.31,123.57,134.31,153.04,33.6,15.61,69.68,23.32,108.24,23.32,47.37,0,90.79-11.29,130.45-33.88,39.57-22.49,71.88-52.69,97.13-90.43l96.58,72.16Z"/>
</svg>